ffmpeg started on 2025-06-20 at 17:01:48
Report written to "D:\Convert\FFMetrics\reports\ssim_report-6.txt"
Log level: 32
Command line:
ffmpeg -hide_banner -nostdin -i "G:\\\xc0\xed\xe8\xec\xe5\\[\xd2\xee\xef]\\\xc2\xee\xeb\xf7\xe8\xf6\xe0 \xe8 \xef\xf0\xff\xed\xee\xf1\xf2\xe8\\\xd2\xee\xf0\xe3\xee\xe2\xe5\xf6 \xe2\xf1\xf2\xf0\xe5\xf7\xe0\xe5\xf2 \xec\xf3\xe4\xf0\xf3\xfe \xe2\xee\xeb\xf7\xe8\xf6\xf3\\DC_Ookami_to_Koushinryou_Merchant_Meets_the_Wise_Wolf_10_Telegram_HEVC.mkv" -i "G:\\\xc0\xed\xe8\xec\xe5\\[\xd2\xee\xef]\\\xc2\xee\xeb\xf7\xe8\xf6\xe0 \xe8 \xef\xf0\xff\xed\xee\xf1\xf2\xe8\\\xd2\xee\xf0\xe3\xee\xe2\xe5\xf6 \xe2\xf1\xf2\xf0\xe5\xf7\xe0\xe5\xf2 \xec\xf3\xe4\xf0\xf3\xfe \xe2\xee\xeb\xf7\xe8\xf6\xf3\\DC_Ookami_to_Koushinryou_Merchant_Meets_the_Wise_Wolf_10_Telegram.mp4" -lavfi "[0:v]settb=AVTB,setpts=PTS-STARTPTS,format=pix_fmts=yuv420p10,fps=24000/1001,scale=1920:1080:flags=bicubic[main];[1:v]settb=AVTB,setpts=PTS-STARTPTS,format=pix_fmts=yuv420p,fps=24000/1001,scale=1920:1080:flags=bicubic[ref];[main][ref]ssim=eof_action=endall:stats_file='D\\:/Convert/FFMetrics/logs/ssim_logfile-6.txt'" -f null -
Input #0, matroska,webm, from 'G:\Аниме\[Топ]\Волчица и пряности\Торговец встречает мудрую волчицу\DC_Ookami_to_Koushinryou_Merchant_Meets_the_Wise_Wolf_10_Telegram_HEVC.mkv':
  Metadata:
    COMPATIBLE_BRANDS: isomiso2avc1mp41
    MAJOR_BRAND     : isom
    MINOR_VERSION   : 512
    ENCODER         : Lavf61.7.100
  Duration: 00:23:57.70, start: -0.021000, bitrate: 709 kb/s
  Stream #0:0: Video: hevc (Main 10), yuv420p10le(tv, bt709, progressive), 1920x1080 [SAR 1:1 DAR 16:9], 23.98 fps, 23.98 tbr, 1k tbn (default)
      Metadata:
        HANDLER_NAME    : VideoHandler
        VENDOR_ID       : [0][0][0][0]
        ENCODER         : Lavc61.19.100 libx265
        BPS             : 512680
        DURATION        : 00:23:56.601708333
        NUMBER_OF_FRAMES: 34444
        NUMBER_OF_BYTES : 92064597
        _STATISTICS_WRITING_APP: mkvpropedit v66.0.0 ('Josie') 64-bit
        _STATISTICS_WRITING_DATE_UTC: 2025-06-20 10:39:17
        _STATISTICS_TAGS: BPS DURATION NUMBER_OF_FRAMES NUMBER_OF_BYTES
  Stream #0:1: Audio: aac (LC), 48000 Hz, stereo, fltp (default)
      Metadata:
        HANDLER_NAME    : SoundHandler
        VENDOR_ID       : [0][0][0][0]
        ENCODER         : Lavc61.19.100 aac
        BPS             : 192729
        DURATION        : 00:23:57.696000000
        NUMBER_OF_FRAMES: 67393
        NUMBER_OF_BYTES : 34635757
        _STATISTICS_WRITING_APP: mkvpropedit v66.0.0 ('Josie') 64-bit
        _STATISTICS_WRITING_DATE_UTC: 2025-06-20 10:39:17
        _STATISTICS_TAGS: BPS DURATION NUMBER_OF_FRAMES NUMBER_OF_BYTES
Input #1, mov,mp4,m4a,3gp,3g2,mj2, from 'G:\Аниме\[Топ]\Волчица и пряности\Торговец встречает мудрую волчицу\DC_Ookami_to_Koushinryou_Merchant_Meets_the_Wise_Wolf_10_Telegram.mp4':
  Metadata:
    major_brand     : isom
    minor_version   : 512
    compatible_brands: isomiso2avc1mp41
    encoder         : Lavf60.16.100
  Duration: 00:23:57.67, start: 0.000000, bitrate: 3283 kb/s
  Stream #1:0[0x1](und): Video: h264 (High) (avc1 / 0x31637661), yuv420p(tv, bt709, progressive), 1920x1080 [SAR 1:1 DAR 16:9], 3137 kb/s, 23.98 fps, 23.98 tbr, 24k tbn (default)
      Metadata:
        handler_name    : VideoHandler
        vendor_id       : [0][0][0][0]
        encoder         : Lavc60.31.102 h264_qsv
  Stream #1:1[0x2](und): Audio: aac (HE-AACv2) (mp4a / 0x6134706D), 48000 Hz, stereo, fltp, 144 kb/s (default)
      Metadata:
        handler_name    : SoundHandler
        vendor_id       : [0][0][0][0]
Stream mapping:
  Stream #0:0 (hevc) -> settb:default
  Stream #1:0 (h264) -> settb:default
  ssim:default -> Stream #0:0 (wrapped_avframe)
  Stream #0:1 -> #0:1 (aac (native) -> pcm_s16le (native))
Output #0, null, to 'pipe:':
  Metadata:
    COMPATIBLE_BRANDS: isomiso2avc1mp41
    MAJOR_BRAND     : isom
    MINOR_VERSION   : 512
    encoder         : Lavf61.7.100
  Stream #0:0: Video: wrapped_avframe, yuv420p10le(tv, bt709, progressive), 1920x1080 [SAR 1:1 DAR 16:9], q=2-31, 200 kb/s, 23.98 fps, 23.98 tbn
      Metadata:
        encoder         : Lavc61.19.100 wrapped_avframe
  Stream #0:1: Audio: pcm_s16le, 48000 Hz, stereo, s16, 1536 kb/s (default)
      Metadata:
        HANDLER_NAME    : SoundHandler
        VENDOR_ID       : [0][0][0][0]
        _STATISTICS_TAGS: BPS DURATION NUMBER_OF_FRAMES NUMBER_OF_BYTES
        BPS             : 192729
        DURATION        : 00:23:57.696000000
        NUMBER_OF_FRAMES: 67393
        NUMBER_OF_BYTES : 34635757
        _STATISTICS_WRITING_APP: mkvpropedit v66.0.0 ('Josie') 64-bit
        _STATISTICS_WRITING_DATE_UTC: 2025-06-20 10:39:17
        encoder         : Lavc61.19.100 pcm_s16le
frame=  188 fps=0.0 q=-0.0 size=N/A time=00:00:07.84 bitrate=N/A speed=15.5x    frame=  470 fps=456 q=-0.0 size=N/A time=00:00:19.60 bitrate=N/A speed=  19x    frame=  735 fps=478 q=-0.0 size=N/A time=00:00:30.65 bitrate=N/A speed=19.9x    frame= 1008 fps=488 q=-0.0 size=N/A time=00:00:42.04 bitrate=N/A speed=20.4x    frame= 1227 fps=476 q=-0.0 size=N/A time=00:00:51.17 bitrate=N/A speed=19.9x    frame= 1440 fps=464 q=-0.0 size=N/A time=00:01:00.06 bitrate=N/A speed=19.4x    frame= 1617 fps=448 q=-0.0 size=N/A time=00:01:07.44 bitrate=N/A speed=18.7x    frame= 1827 fps=442 q=-0.0 size=N/A time=00:01:16.20 bitrate=N/A speed=18.5x    frame= 2031 fps=438 q=-0.0 size=N/A time=00:01:24.70 bitrate=N/A speed=18.3x    frame= 2259 fps=438 q=-0.0 size=N/A time=00:01:34.21 bitrate=N/A speed=18.3x    frame= 2480 fps=438 q=-0.0 size=N/A time=00:01:43.43 bitrate=N/A speed=18.3x    frame= 2720 fps=439 q=-0.0 size=N/A time=00:01:53.44 bitrate=N/A speed=18.3x    frame= 2967 fps=441 q=-0.0 size=N/A time=00:02:03.74 bitrate=N/A speed=18.4x    frame= 3235 fps=447 q=-0.0 size=N/A time=00:02:14.92 bitrate=N/A speed=18.7x    frame= 3527 fps=455 q=-0.0 size=N/A time=00:02:27.10 bitrate=N/A speed=  19x    frame= 3817 fps=462 q=-0.0 size=N/A time=00:02:39.20 bitrate=N/A speed=19.3x    frame= 4102 fps=467 q=-0.0 size=N/A time=00:02:51.08 bitrate=N/A speed=19.5x    frame= 4388 fps=472 q=-0.0 size=N/A time=00:03:03.01 bitrate=N/A speed=19.7x    frame= 4659 fps=475 q=-0.0 size=N/A time=00:03:14.31 bitrate=N/A speed=19.8x    frame= 4930 fps=478 q=-0.0 size=N/A time=00:03:25.62 bitrate=N/A speed=19.9x    frame= 5219 fps=481 q=-0.0 size=N/A time=00:03:37.67 bitrate=N/A speed=20.1x    frame= 5467 fps=481 q=-0.0 size=N/A time=00:03:48.01 bitrate=N/A speed=20.1x    frame= 5743 fps=483 q=-0.0 size=N/A time=00:03:59.53 bitrate=N/A speed=20.2x    frame= 6020 fps=486 q=-0.0 size=N/A time=00:04:11.08 bitrate=N/A speed=20.3x    frame= 6299 fps=488 q=-0.0 size=N/A time=00:04:22.72 bitrate=N/A speed=20.4x    frame= 6590 fps=491 q=-0.0 size=N/A time=00:04:34.85 bitrate=N/A speed=20.5x    frame= 6874 fps=493 q=-0.0 size=N/A time=00:04:46.70 bitrate=N/A speed=20.6x    frame= 7140 fps=494 q=-0.0 size=N/A time=00:04:57.79 bitrate=N/A speed=20.6x    frame= 7432 fps=496 q=-0.0 size=N/A time=00:05:09.97 bitrate=N/A speed=20.7x    frame= 7693 fps=497 q=-0.0 size=N/A time=00:05:20.86 bitrate=N/A speed=20.7x    frame= 7945 fps=497 q=-0.0 size=N/A time=00:05:31.37 bitrate=N/A speed=20.7x    frame= 8222 fps=498 q=-0.0 size=N/A time=00:05:42.92 bitrate=N/A speed=20.8x    frame= 8505 fps=500 q=-0.0 size=N/A time=00:05:54.72 bitrate=N/A speed=20.8x    frame= 8805 fps=502 q=-0.0 size=N/A time=00:06:07.24 bitrate=N/A speed=20.9x    frame= 9072 fps=502 q=-0.0 size=N/A time=00:06:18.37 bitrate=N/A speed=20.9x    frame= 9340 fps=503 q=-0.0 size=N/A time=00:06:29.55 bitrate=N/A speed=  21x    frame= 9621 fps=504 q=-0.0 size=N/A time=00:06:41.27 bitrate=N/A speed=  21x    frame= 9905 fps=505 q=-0.0 size=N/A time=00:06:53.12 bitrate=N/A speed=21.1x    frame=10192 fps=506 q=-0.0 size=N/A time=00:07:05.09 bitrate=N/A speed=21.1x    frame=10472 fps=507 q=-0.0 size=N/A time=00:07:16.76 bitrate=N/A speed=21.2x    frame=10738 fps=507 q=-0.0 size=N/A time=00:07:27.86 bitrate=N/A speed=21.2x    frame=11022 fps=509 q=-0.0 size=N/A time=00:07:39.70 bitrate=N/A speed=21.2x    frame=11301 fps=509 q=-0.0 size=N/A time=00:07:51.34 bitrate=N/A speed=21.2x    frame=11587 fps=510 q=-0.0 size=N/A time=00:08:03.27 bitrate=N/A speed=21.3x    frame=11870 fps=511 q=-0.0 size=N/A time=00:08:15.07 bitrate=N/A speed=21.3x    frame=12150 fps=512 q=-0.0 size=N/A time=00:08:26.75 bitrate=N/A speed=21.4x    frame=12426 fps=512 q=-0.0 size=N/A time=00:08:38.26 bitrate=N/A speed=21.4x    frame=12675 fps=512 q=-0.0 size=N/A time=00:08:48.65 bitrate=N/A speed=21.3x    frame=12936 fps=512 q=-0.0 size=N/A time=00:08:59.53 bitrate=N/A speed=21.3x    frame=13196 fps=511 q=-0.0 size=N/A time=00:09:10.38 bitrate=N/A speed=21.3x    frame=13477 fps=512 q=-0.0 size=N/A time=00:09:22.10 bitrate=N/A speed=21.4x    frame=13759 fps=513 q=-0.0 size=N/A time=00:09:33.86 bitrate=N/A speed=21.4x    frame=14042 fps=513 q=-0.0 size=N/A time=00:09:45.66 bitrate=N/A speed=21.4x    frame=14315 fps=514 q=-0.0 size=N/A time=00:09:57.05 bitrate=N/A speed=21.4x    frame=14581 fps=514 q=-0.0 size=N/A time=00:10:08.14 bitrate=N/A speed=21.4x    frame=14850 fps=514 q=-0.0 size=N/A time=00:10:19.36 bitrate=N/A speed=21.4x    frame=15119 fps=514 q=-0.0 size=N/A time=00:10:30.58 bitrate=N/A speed=21.4x    frame=15383 fps=514 q=-0.0 size=N/A time=00:10:41.59 bitrate=N/A speed=21.4x    frame=15686 fps=515 q=-0.0 size=N/A time=00:10:54.23 bitrate=N/A speed=21.5x    frame=15960 fps=516 q=-0.0 size=N/A time=00:11:05.66 bitrate=N/A speed=21.5x    frame=16234 fps=516 q=-0.0 size=N/A time=00:11:17.09 bitrate=N/A speed=21.5x    frame=16506 fps=516 q=-0.0 size=N/A time=00:11:28.43 bitrate=N/A speed=21.5x    frame=16804 fps=517 q=-0.0 size=N/A time=00:11:40.86 bitrate=N/A speed=21.6x    frame=17075 fps=517 q=-0.0 size=N/A time=00:11:52.16 bitrate=N/A speed=21.6x    frame=17332 fps=517 q=-0.0 size=N/A time=00:12:02.88 bitrate=N/A speed=21.6x    frame=17604 fps=517 q=-0.0 size=N/A time=00:12:14.23 bitrate=N/A speed=21.6x    frame=17871 fps=517 q=-0.0 size=N/A time=00:12:25.36 bitrate=N/A speed=21.6x    frame=18124 fps=517 q=-0.0 size=N/A time=00:12:35.92 bitrate=N/A speed=21.6x    frame=18400 fps=517 q=-0.0 size=N/A time=00:12:47.43 bitrate=N/A speed=21.6x    frame=18665 fps=517 q=-0.0 size=N/A time=00:12:58.48 bitrate=N/A speed=21.6x    frame=18962 fps=518 q=-0.0 size=N/A time=00:13:10.87 bitrate=N/A speed=21.6x    frame=19249 fps=518 q=-0.0 size=N/A time=00:13:22.84 bitrate=N/A speed=21.6x    frame=19533 fps=519 q=-0.0 size=N/A time=00:13:34.68 bitrate=N/A speed=21.6x    frame=19819 fps=519 q=-0.0 size=N/A time=00:13:46.61 bitrate=N/A speed=21.7x    frame=20092 fps=519 q=-0.0 size=N/A time=00:13:58.00 bitrate=N/A speed=21.7x    frame=20385 fps=520 q=-0.0 size=N/A time=00:14:10.22 bitrate=N/A speed=21.7x    frame=20661 fps=520 q=-0.0 size=N/A time=00:14:21.73 bitrate=N/A speed=21.7x    frame=20930 fps=520 q=-0.0 size=N/A time=00:14:32.95 bitrate=N/A speed=21.7x    frame=21191 fps=520 q=-0.0 size=N/A time=00:14:43.84 bitrate=N/A speed=21.7x    frame=21463 fps=520 q=-0.0 size=N/A time=00:14:55.18 bitrate=N/A speed=21.7x    frame=21741 fps=520 q=-0.0 size=N/A time=00:15:06.78 bitrate=N/A speed=21.7x    frame=22009 fps=520 q=-0.0 size=N/A time=00:15:17.95 bitrate=N/A speed=21.7x    frame=22282 fps=520 q=-0.0 size=N/A time=00:15:29.34 bitrate=N/A speed=21.7x    frame=22562 fps=521 q=-0.0 size=N/A time=00:15:41.02 bitrate=N/A speed=21.7x    frame=22835 fps=521 q=-0.0 size=N/A time=00:15:52.40 bitrate=N/A speed=21.7x    frame=23082 fps=520 q=-0.0 size=N/A time=00:16:02.71 bitrate=N/A speed=21.7x    frame=23357 fps=520 q=-0.0 size=N/A time=00:16:14.18 bitrate=N/A speed=21.7x    frame=23600 fps=520 q=-0.0 size=N/A time=00:16:24.31 bitrate=N/A speed=21.7x    frame=23875 fps=520 q=-0.0 size=N/A time=00:16:35.78 bitrate=N/A speed=21.7x    frame=24168 fps=520 q=-0.0 size=N/A time=00:16:48.00 bitrate=N/A speed=21.7x    frame=24457 fps=521 q=-0.0 size=N/A time=00:17:00.06 bitrate=N/A speed=21.7x    frame=24731 fps=521 q=-0.0 size=N/A time=00:17:11.48 bitrate=N/A speed=21.7x    frame=24993 fps=521 q=-0.0 size=N/A time=00:17:22.41 bitrate=N/A speed=21.7x    frame=25251 fps=521 q=-0.0 size=N/A time=00:17:33.17 bitrate=N/A speed=21.7x    frame=25525 fps=521 q=-0.0 size=N/A time=00:17:44.60 bitrate=N/A speed=21.7x    frame=25798 fps=521 q=-0.0 size=N/A time=00:17:55.99 bitrate=N/A speed=21.7x    frame=26066 fps=521 q=-0.0 size=N/A time=00:18:07.16 bitrate=N/A speed=21.7x    frame=26318 fps=521 q=-0.0 size=N/A time=00:18:17.67 bitrate=N/A speed=21.7x    frame=26579 fps=520 q=-0.0 size=N/A time=00:18:28.56 bitrate=N/A speed=21.7x    frame=26839 fps=520 q=-0.0 size=N/A time=00:18:39.40 bitrate=N/A speed=21.7x    frame=27120 fps=521 q=-0.0 size=N/A time=00:18:51.13 bitrate=N/A speed=21.7x    frame=27334 fps=519 q=-0.0 size=N/A time=00:19:00.05 bitrate=N/A speed=21.7x    frame=27588 fps=519 q=-0.0 size=N/A time=00:19:10.64 bitrate=N/A speed=21.7x    frame=27844 fps=519 q=-0.0 size=N/A time=00:19:21.32 bitrate=N/A speed=21.6x    frame=28058 fps=518 q=-0.0 size=N/A time=00:19:30.25 bitrate=N/A speed=21.6x    frame=28288 fps=517 q=-0.0 size=N/A time=00:19:39.84 bitrate=N/A speed=21.6x    frame=28518 fps=517 q=-0.0 size=N/A time=00:19:49.43 bitrate=N/A speed=21.5x    frame=28753 fps=516 q=-0.0 size=N/A time=00:19:59.23 bitrate=N/A speed=21.5x    frame=29031 fps=516 q=-0.0 size=N/A time=00:20:10.83 bitrate=N/A speed=21.5x    frame=29280 fps=516 q=-0.0 size=N/A time=00:20:21.22 bitrate=N/A speed=21.5x    frame=29542 fps=516 q=-0.0 size=N/A time=00:20:32.14 bitrate=N/A speed=21.5x    frame=29824 fps=516 q=-0.0 size=N/A time=00:20:43.90 bitrate=N/A speed=21.5x    frame=30103 fps=516 q=-0.0 size=N/A time=00:20:55.54 bitrate=N/A speed=21.5x    frame=30386 fps=517 q=-0.0 size=N/A time=00:21:07.34 bitrate=N/A speed=21.5x    frame=30681 fps=517 q=-0.0 size=N/A time=00:21:19.65 bitrate=N/A speed=21.6x    frame=30963 fps=517 q=-0.0 size=N/A time=00:21:31.41 bitrate=N/A speed=21.6x    frame=31248 fps=518 q=-0.0 size=N/A time=00:21:43.30 bitrate=N/A speed=21.6x    frame=31550 fps=518 q=-0.0 size=N/A time=00:21:55.89 bitrate=N/A speed=21.6x    frame=31825 fps=518 q=-0.0 size=N/A time=00:22:07.36 bitrate=N/A speed=21.6x    frame=32100 fps=518 q=-0.0 size=N/A time=00:22:18.83 bitrate=N/A speed=21.6x    frame=32251 fps=516 q=-0.0 size=N/A time=00:22:25.13 bitrate=N/A speed=21.5x    frame=32416 fps=515 q=-0.0 size=N/A time=00:22:32.01 bitrate=N/A speed=21.5x    frame=32628 fps=514 q=-0.0 size=N/A time=00:22:40.85 bitrate=N/A speed=21.4x    frame=32894 fps=514 q=-0.0 size=N/A time=00:22:51.95 bitrate=N/A speed=21.4x    frame=33160 fps=514 q=-0.0 size=N/A time=00:23:03.04 bitrate=N/A speed=21.4x    frame=33372 fps=513 q=-0.0 size=N/A time=00:23:11.89 bitrate=N/A speed=21.4x    frame=33631 fps=513 q=-0.0 size=N/A time=00:23:22.69 bitrate=N/A speed=21.4x    frame=33880 fps=513 q=-0.0 size=N/A time=00:23:33.07 bitrate=N/A speed=21.4x    frame=34067 fps=512 q=-0.0 size=N/A time=00:23:40.87 bitrate=N/A speed=21.3x    frame=34282 fps=511 q=-0.0 size=N/A time=00:23:49.84 bitrate=N/A speed=21.3x    [Parsed_ssim_10 @ 0000014e953a2c40] SSIM Y:0.994615 (22.687942) U:0.995116 (23.112213) V:0.995330 (23.307039) All:0.994818 (22.854634)
[out#0/null @ 0000014e94b45480] video:14800KiB audio:269572KiB subtitle:0KiB other streams:0KiB global headers:0KiB muxing overhead: unknown
frame=34444 fps=511 q=-0.0 Lsize=N/A time=00:23:56.60 bitrate=N/A speed=21.3x    
